<svg width="132" height="132" viewBox="0 0 132 132" fill="none" xmlns="http://www.w3.org/2000/svg">
<g clip-path="url(#clip0_4601_2133)">
<path fill-rule="evenodd" clip-rule="evenodd" d="M69.2555 16.5754L65.0707 19.4995C47.3252 31.8993 31.8999 47.3246 19.5 65.0701L16.5753 69.2556C13.0696 75.0328 11.9063 78.7624 11.9063 81.4027C11.9063 83.4831 12.6332 85.5749 15.0475 88.2141C23.055 81.3465 35.1281 81.7045 42.7117 89.2881C50.2954 96.872 50.6534 108.945 43.7859 116.952C46.425 119.367 48.5169 120.094 50.5973 120.094C53.2376 120.094 56.9673 118.93 62.7444 115.425L66.9295 112.501C84.6753 100.1 100.101 84.6747 112.501 66.9288L115.425 62.7445C118.93 56.9671 120.094 53.2373 120.094 50.5971C120.094 48.5168 119.367 46.4251 116.952 43.7858C108.944 50.6527 96.872 50.2945 89.2888 42.7111C81.7054 35.1277 81.3472 23.0551 88.2141 15.0475C85.5749 12.6332 83.4832 11.9063 81.403 11.9063C78.7627 11.9063 75.033 13.0696 69.2555 16.5754ZM81.403 0C87.768 -5.676e-07 92.9193 2.88192 97.416 7.37822L98.1401 8.10284C102.795 12.7573 100.745 19.2695 97.7083 22.3065C94.3979 25.6162 94.3979 30.9824 97.7083 34.2921C101.018 37.6018 106.384 37.6018 109.693 34.2921C112.731 31.2551 119.242 29.2052 123.897 33.8596L124.622 34.5844C129.118 39.0807 132 44.232 132 50.5971C132 56.5802 129.428 62.6542 125.494 69.1009C125.43 69.2059 125.362 69.309 125.293 69.4098L122.26 73.7484C109.06 92.6392 92.6398 109.06 73.7491 122.26L69.4098 125.293C69.309 125.362 69.206 125.43 69.101 125.494C62.6545 129.428 56.5805 132 50.5973 132C44.2323 132 39.0807 129.118 34.5844 124.622L33.8601 123.897C29.2052 119.242 31.2556 112.73 34.2928 109.693C37.6025 106.383 37.6025 101.017 34.2928 97.7073C30.983 94.397 25.6169 94.397 22.3072 97.7073C19.27 100.744 12.7572 102.795 8.10235 98.1401L7.37822 97.416C2.88185 92.9193 -5.676e-07 87.7678 0 81.4027C0 75.4196 2.57229 69.3455 6.50597 62.899C6.57005 62.794 6.63739 62.691 6.70787 62.5902L9.74028 58.2504C22.9401 39.36 39.3607 22.9395 58.251 9.73981L62.5902 6.70786C62.691 6.63737 62.7941 6.57001 62.8992 6.5059C69.3458 2.5723 75.4199 5.676e-07 81.403 0Z" fill="#BADD50"/>
<path d="M86.4325 45.9832C88.6752 48.4555 88.4891 52.2778 86.0167 54.5205C81.0985 58.9824 77.7969 62.6358 75.0771 66.8818C72.3323 71.1652 70.0138 76.3096 67.3561 83.943C66.667 85.9234 65.0005 87.4049 62.9528 87.8575C60.9051 88.31 58.7696 87.6688 57.3093 86.1634L45.7049 74.1964C43.3812 71.8001 43.4401 67.9738 45.8365 65.65C48.2328 63.3263 52.0592 63.3852 54.3829 65.7815L59.3917 70.9464C61.0776 67.003 62.8521 63.5559 64.899 60.3609C68.3924 54.9082 72.5144 50.4485 77.8952 45.5675C80.3676 43.3248 84.1898 43.5109 86.4325 45.9832Z" fill="#BADD50"/>
</g>
<defs>
<clipPath id="clip0_4601_2133">
<rect width="132" height="132" fill="white"/>
</clipPath>
</defs>
</svg>
