<svg width="132" height="132" viewBox="0 0 132 132" fill="none" xmlns="http://www.w3.org/2000/svg">
<g clip-path="url(#clip0_4601_2127)">
<path fill-rule="evenodd" clip-rule="evenodd" d="M129.68 12.3091C132.572 9.68503 132.79 5.21293 130.166 2.32033C127.542 -0.572276 123.07 -0.790034 120.177 1.83396C113.882 7.54475 109.059 12.7626 104.972 19.1424C102.577 22.8805 100.501 26.9137 98.5286 31.5274L92.6683 25.4845C89.9496 22.6808 85.4727 22.6119 82.669 25.3306C79.8654 28.0494 79.7964 32.5263 82.5152 35.33L96.0922 49.3314C97.8007 51.0928 100.299 51.8429 102.695 51.3135C105.091 50.784 107.041 49.0506 107.847 46.7336C110.956 37.8024 113.669 31.7834 116.88 26.7719C120.062 21.8039 123.925 17.5295 129.68 12.3091ZM80.3822 91.4338C76.4768 91.4338 73.3108 94.5997 73.3108 98.505C73.3108 102.41 76.4768 105.576 80.3822 105.576H96.8201C100.725 105.576 103.892 102.41 103.892 98.505C103.892 94.5997 100.725 91.4338 96.8201 91.4338H80.3822ZM62.4636 27.4427C63.4034 27.4455 64.2239 27.4481 64.7609 27.4481C68.0154 27.4481 70.6537 30.0864 70.6537 33.3409C70.6537 36.5955 68.0154 39.2338 64.7609 39.2338C64.1278 39.2338 63.2194 39.231 62.2114 39.2279C59.8695 39.2208 56.9877 39.212 55.7723 39.2325C39.0051 39.5135 30.8002 41.0468 23.2723 42.4537L23.2017 42.4668L23.1877 42.4694C21.9242 42.7056 20.6489 42.9438 19.356 43.1721C15.0196 43.9376 11.7857 47.6559 11.7857 51.88V57.0204H87.1313L87.6314 57.5362C92.186 62.2331 98.8501 64.2336 105.238 62.8216C107.363 62.3519 109.357 61.5269 111.152 60.4074C111.803 57.8628 114.112 55.9818 116.86 55.9818C120.114 55.9818 122.752 58.6201 122.752 61.8746V107.424C122.752 117.98 114.635 126.189 104.977 127.918C103.903 128.111 102.829 128.312 101.715 128.519C92.9216 130.162 83.0051 131.999 61.3764 131.999C39.7476 131.999 29.831 130.162 21.0367 128.519C19.9225 128.311 18.8508 128.111 17.7764 127.918C8.11688 126.189 0 117.98 0 107.424V51.88C0 41.5183 7.76197 33.2508 17.3072 31.5658C18.5371 31.3487 19.7591 31.1204 21.0367 30.8816C28.9643 29.4002 37.8685 27.7452 55.5746 27.4484C56.9131 27.4259 60.0791 27.4355 62.4636 27.4427ZM110.967 75.8776H11.7857V107.424C11.7857 111.57 15.092 115.465 19.8528 116.317C20.9742 116.517 22.0856 116.726 23.188 116.931L23.2017 116.934L23.3054 116.953C31.5752 118.499 40.7516 120.213 61.3764 120.213C82.0011 120.213 91.1774 118.499 99.4469 116.953L99.5506 116.934C100.654 116.729 101.778 116.518 102.9 116.317C107.661 115.465 110.967 111.57 110.967 107.424V75.8776Z" fill="#BADD50"/>
</g>
<defs>
<clipPath id="clip0_4601_2127">
<rect width="132" height="132" fill="white"/>
</clipPath>
</defs>
</svg>
