<svg width="132" height="113" viewBox="0 0 132 113" fill="none" xmlns="http://www.w3.org/2000/svg">
<path fill-rule="evenodd" clip-rule="evenodd" d="M32.8476 12.0564C35.6146 11.7924 37.6437 9.33543 37.3797 6.56841C37.1158 3.80142 34.6588 1.77228 31.8918 2.03621C28.2922 2.37956 24.748 2.7719 21.2808 3.18914C11.7453 4.33663 4.255 11.8822 3.13242 21.402C2.73981 24.7314 2.36635 28.1394 2.03619 31.6026C1.7724 34.3696 3.80165 36.8265 6.56866 37.0903C9.33568 37.3541 11.7926 35.3249 12.0564 32.5579C12.3778 29.1865 12.7427 25.8551 13.1288 22.5808C13.7092 17.6588 17.5812 13.7726 22.4834 13.1827C25.8868 12.7731 29.3468 12.3903 32.8476 12.0564ZM75.4239 43.6847C74.6378 42.8985 73.3631 42.8985 72.5769 43.6847L70.5157 45.7458L75.3583 50.5884C77.7169 52.947 77.7169 56.7709 75.3583 59.1294C72.9998 61.488 69.1759 61.488 66.8173 59.1294L61.9747 54.2868L59.5808 56.6806C60.8231 59.4382 61.3892 62.5678 61.3892 65.8754C61.3892 71.3653 59.8296 76.365 56.2072 79.9873C52.5849 83.61 47.5853 85.169 42.0953 85.169C36.6053 85.169 31.6057 83.61 27.9834 79.9873C24.361 76.365 22.8014 71.3653 22.8014 65.8754C22.8014 60.3854 24.361 55.3857 27.9834 51.7634C31.6057 48.141 36.6053 46.5814 42.0953 46.5814C45.2644 46.5814 48.2703 47.1011 50.942 48.2374L57.3856 41.794C57.4831 41.681 57.5854 41.5708 57.6925 41.4637C57.7997 41.3565 57.9099 41.2541 58.0228 41.1567L64.036 35.1436C69.5392 29.6405 78.4616 29.6405 83.9651 35.1437L88.8119 39.9905C91.1705 42.3491 91.1705 46.173 88.8119 48.5315C86.4534 50.8901 82.6292 50.8901 80.2708 48.5315L75.4239 43.6847ZM32.867 65.8754C32.867 62.2382 33.8744 60.1073 35.1008 58.8809C36.3273 57.6544 38.4581 56.6471 42.0953 56.6471C45.7325 56.6471 47.8633 57.6544 49.0898 58.8809C50.3162 60.1073 51.3236 62.2382 51.3236 65.8754C51.3236 69.5126 50.3162 71.6434 49.0898 72.8698C47.8633 74.0963 45.7325 75.1037 42.0953 75.1037C38.4581 75.1037 36.3273 74.0963 35.1008 72.8698C33.8744 71.6434 32.867 69.5126 32.867 65.8754ZM106.169 75.6451C108.936 75.9089 110.965 78.3658 110.702 81.133C110.372 84.5956 109.998 88.0043 109.605 91.3332C108.483 100.853 100.992 108.399 91.4572 109.546C87.9898 109.963 84.4459 110.356 80.8464 110.699C78.0791 110.963 75.622 108.934 75.3581 106.167C75.0942 103.4 77.1233 100.943 79.8903 100.679C83.391 100.346 86.8512 99.9622 90.2541 99.5524C95.1565 98.9629 99.029 95.0768 99.6087 90.1543C99.9953 86.8801 100.36 83.5488 100.681 80.1775C100.945 77.4105 103.402 75.3813 106.169 75.6451ZM75.3581 6.56841C75.622 3.80142 78.0791 1.77228 80.8464 2.03621C84.4459 2.37956 87.9898 2.7719 91.4572 3.18914C100.992 4.33663 108.483 11.8822 109.605 21.402C109.998 24.7314 110.372 28.1394 110.702 31.6026C110.965 34.3696 108.936 36.8265 106.169 37.0903C103.402 37.3541 100.945 35.3249 100.681 32.5579C100.36 29.1865 99.9953 25.8551 99.6087 22.5808C99.029 17.6588 95.1565 13.7726 90.2541 13.1827C86.8512 12.7731 83.391 12.3903 79.8903 12.0564C77.1233 11.7924 75.0942 9.33543 75.3581 6.56841ZM12.0564 80.1775C11.7926 77.4105 9.33568 75.3813 6.56866 75.6451C3.80165 75.9089 1.7724 78.3658 2.03619 81.133C2.36635 84.5956 2.73981 88.0043 3.13242 91.3332C4.255 100.853 11.7453 108.399 21.2808 109.546C24.748 109.963 28.2922 110.356 31.8918 110.699C34.6588 110.963 37.1158 108.934 37.3797 106.167C37.6437 103.4 35.6146 100.943 32.8476 100.679C29.3468 100.346 25.8868 99.9622 22.4834 99.5524C17.5812 98.9629 13.7092 95.0768 13.1288 90.1543C12.7427 86.8801 12.3778 83.5488 12.0564 80.1775Z" fill="#BADD50"/>
<path d="M130.423 33.8018C132.339 35.9133 132.18 39.1778 130.068 41.0932C125.868 44.9039 123.048 48.0241 120.725 51.6504C118.381 55.3086 116.401 59.7023 114.131 66.2216C113.543 67.913 112.119 69.1782 110.371 69.5648C108.622 69.9512 106.798 69.4036 105.551 68.1179L95.6399 57.8975C93.6553 55.8509 93.7057 52.583 95.7522 50.5984C97.7988 48.6138 101.067 48.6641 103.051 50.7107L107.329 55.1218C108.769 51.7539 110.284 48.8099 112.033 46.0812C115.016 41.4243 118.537 37.6154 123.132 33.4468C125.244 31.5314 128.508 31.6904 130.423 33.8018Z" fill="#BADD50"/>
</svg>
