<svg width="60" height="60" viewBox="0 0 60 60" fill="none" xmlns="http://www.w3.org/2000/svg">
<path d="M11.6737 11.6737C13.9055 9.44209 17.5237 9.44209 19.7556 11.6737L30.0007 21.9187L40.245 11.6747C42.4768 9.44308 46.0945 9.44308 48.3262 11.6747C50.5579 13.9063 50.5579 17.5245 48.3262 19.7561L38.0819 30.0001L48.3262 40.2439C50.5579 42.4755 50.5579 46.0936 48.3262 48.3253C46.0945 50.5569 42.4768 50.5569 40.245 48.3253L30.0007 38.0815L19.7556 48.3263C17.5238 50.5579 13.9056 50.5579 11.6739 48.3263C9.44216 46.0946 9.44216 42.4765 11.6739 40.2449L21.9188 30.0001L11.6737 19.7551C9.44209 17.5235 9.44209 13.9053 11.6737 11.6737Z" fill="white"/>
</svg>
