<svg width="60" height="60" viewBox="0 0 60 60" fill="none" xmlns="http://www.w3.org/2000/svg">
<g clip-path="url(#clip0_6490_2605)">
<path fill-rule="evenodd" clip-rule="evenodd" d="M31.4798 7.53429L29.5776 8.86341C21.5115 14.4997 14.4999 21.5112 8.86363 29.5773L7.53424 31.4798C5.94073 34.1058 5.41196 35.8011 5.41196 37.0012C5.41196 37.9469 5.74239 38.8977 6.83979 40.0973C10.4796 36.9757 15.9673 37.1384 19.4144 40.5855C22.8615 44.0327 23.0243 49.5206 19.9027 53.16C21.1023 54.2576 22.0531 54.588 22.9988 54.588C24.1989 54.588 25.8942 54.0591 28.5202 52.4657L30.4225 51.1367C38.4888 45.5001 45.5006 38.4885 51.1367 30.4222L52.4657 28.5202C54.0591 25.8941 54.588 24.1988 54.588 22.9987C54.588 22.0531 54.2576 21.1023 53.16 19.9026C49.5201 23.024 44.0327 22.8612 40.5858 19.4141C37.1388 15.9671 36.976 10.4796 40.0973 6.83979C38.8977 5.74234 37.9469 5.41196 37.0014 5.41196C35.8012 5.41196 34.1059 5.94073 31.4798 7.53429ZM37.0014 0C39.8946 -2.58e-07 42.2361 1.30996 44.28 3.35373L44.6091 3.68311C46.725 5.79879 45.7933 8.75884 44.4129 10.1393C42.9081 11.6437 42.9081 14.0829 44.4129 15.5873C45.9171 17.0917 48.3561 17.0917 49.8604 15.5873C51.2413 14.2068 54.201 13.2751 56.3169 15.3907L56.6464 15.7202C58.6899 17.7639 60 20.1054 60 22.9987C60 25.7183 58.8309 28.4792 57.0429 31.4095C57.0137 31.4572 56.9829 31.5041 56.9511 31.5499L55.5729 33.522C49.5729 42.1087 42.109 49.5729 33.5223 55.5729L31.5499 56.9511C31.5041 56.9829 31.4573 57.0137 31.4095 57.0429C28.4793 58.8309 25.7184 60 22.9988 60C20.1056 60 17.7639 58.6899 15.7202 56.6464L15.3909 56.3169C13.2751 54.201 14.2071 51.2409 15.5876 49.8604C17.092 48.3557 17.092 45.9167 15.5876 44.4124C14.0832 42.9077 11.644 42.9077 10.1396 44.4124C8.7591 45.7929 5.79874 46.725 3.68289 44.6091L3.35373 44.28C1.30993 42.2361 -2.58e-07 39.8945 0 37.0012C0 34.2816 1.16922 31.5207 2.95726 28.5905C2.98639 28.5427 3.017 28.4959 3.04903 28.4501L4.4274 26.4774C10.4273 17.8909 17.8912 10.4271 26.4777 4.42719L28.4501 3.04903C28.4959 3.01698 28.5428 2.98637 28.5906 2.95723C31.5208 1.16923 34.2818 2.58e-07 37.0014 0Z" fill="white"/>
<path d="M39.2875 20.9014C40.3069 22.0252 40.2223 23.7626 39.0985 24.7821C36.863 26.8102 35.3622 28.4708 34.1259 30.4008C32.8783 32.3478 31.8245 34.6862 30.6164 38.1559C30.3032 39.0561 29.5457 39.7295 28.6149 39.9352C27.6842 40.1409 26.7134 39.8495 26.0497 39.1652L20.775 33.7257C19.7188 32.6364 19.7455 30.8972 20.8348 29.8409C21.924 28.7847 23.6633 28.8115 24.7195 29.9007L26.9962 32.2484C27.7625 30.4559 28.5691 28.889 29.4995 27.4368C31.0875 24.9583 32.9611 22.9311 35.4069 20.7125C36.5307 19.6931 38.2681 19.7777 39.2875 20.9014Z" fill="white"/>
</g>
<defs>
<clipPath id="clip0_6490_2605">
<rect width="60" height="60" fill="white"/>
</clipPath>
</defs>
</svg>
