<svg width="132" height="132" viewBox="0 0 132 132" fill="none" xmlns="http://www.w3.org/2000/svg">
<g clip-path="url(#clip0_4601_2130)">
<path fill-rule="evenodd" clip-rule="evenodd" d="M80.554 18.1067C78.4239 17.6478 76.327 17.2873 74.2494 17.025V28.7192C86.3986 30.0413 96.6212 34.4013 104.183 41.9628C113.399 51.1793 117.86 64.35 117.86 80.1432C117.86 95.9367 113.399 109.107 104.183 118.324C94.9665 127.54 81.7959 132 66.0027 132C50.2094 132 37.0388 127.54 27.8222 118.324C18.6056 109.107 14.1455 95.9367 14.1455 80.1432C14.1455 64.35 18.6056 51.1793 27.8222 41.9628C35.3824 34.4026 45.6031 30.0428 57.7494 28.72V17.0252C55.6722 17.2875 53.5759 17.6479 51.4461 18.1067C46.9919 19.0662 42.6033 16.2331 41.6438 11.7789C40.6845 7.32471 43.5175 2.9361 47.9716 1.97666C60.2073 -0.658887 71.7928 -0.658887 84.0284 1.97666C88.4826 2.9361 91.3156 7.32471 90.3563 11.7789C89.3968 16.2331 85.0082 19.0662 80.554 18.1067ZM34.7486 19.0687C36.6925 21.679 36.1522 25.3709 33.5419 27.3147C28.4209 31.1281 23.8695 35.6714 20.0412 40.7911C18.0922 43.3975 14.3993 43.9305 11.7929 41.9817C9.18644 40.0327 8.65344 36.3398 10.6024 33.7334C15.1101 27.705 20.4694 22.3548 26.5028 17.862C29.1131 15.9182 32.8048 16.4584 34.7486 19.0687ZM97.2519 19.0687C95.3078 21.679 95.849 25.3709 98.4588 27.3147C103.579 31.1281 108.132 35.6714 111.96 40.7911C113.908 43.3975 117.602 43.9305 120.208 41.9817C122.815 40.0327 123.347 36.3398 121.399 33.7334C116.891 27.705 111.532 22.3548 105.498 17.862C102.887 15.9182 99.1961 16.4584 97.2519 19.0687ZM25.9312 80.1432C25.9312 66.5193 29.7447 56.7078 36.1559 50.2965C42.5672 43.8853 52.3787 40.0718 66.0027 40.0718C79.6266 40.0718 89.4381 43.8853 95.849 50.2965C102.26 56.7078 106.074 66.5193 106.074 80.1432C106.074 93.7671 102.26 103.579 95.849 109.99C89.4381 116.401 79.6266 120.214 66.0027 120.214C52.3787 120.214 42.5672 116.401 36.1559 109.99C29.7447 103.579 25.9312 93.7671 25.9312 80.1432ZM66.0004 56.1177C69.2549 56.1177 71.8932 58.756 71.8932 62.0106V78.0707L81.23 87.4428C83.527 89.7484 83.52 93.4796 81.2143 95.7764C78.9087 98.0732 75.1775 98.0666 72.8806 95.7613L61.8256 84.6641C60.7253 83.5597 60.1075 82.0641 60.1075 80.5051V62.0106C60.1075 58.756 62.7458 56.1177 66.0004 56.1177Z" fill="#FF6060"/>
</g>
<defs>
<clipPath id="clip0_4601_2130">
<rect width="132" height="132" fill="white"/>
</clipPath>
</defs>
</svg>
