<svg width="132" height="132" viewBox="0 0 132 132" fill="none" xmlns="http://www.w3.org/2000/svg">
<g clip-path="url(#clip0_5443_2310)">
<path fill-rule="evenodd" clip-rule="evenodd" d="M94.5742 2.07346C91.8124 -0.688102 87.3351 -0.688102 84.5734 2.07346C81.8119 4.83502 81.8119 9.31241 84.5734 12.0739L97.251 24.7518L84.5736 37.4294C81.812 40.191 81.812 44.6683 84.5736 47.4299C87.3352 50.1915 91.8125 50.1915 94.5742 47.4299L107.252 34.7523L119.929 47.4287C122.69 50.1902 127.167 50.1902 129.929 47.4287C132.69 44.6671 132.69 40.1897 129.929 37.4282L117.252 24.7518L129.929 12.0752C132.69 9.31362 132.69 4.83625 129.929 2.07469C127.167 -0.686881 122.69 -0.686881 119.929 2.07469L107.252 14.7513L94.5742 2.07346ZM80.3822 91.4336C76.4768 91.4336 73.3108 94.5997 73.3108 98.505C73.3108 102.41 76.4768 105.576 80.3822 105.576H96.8201C100.725 105.576 103.892 102.41 103.892 98.505C103.892 94.5997 100.725 91.4336 96.8201 91.4336H80.3822ZM110.967 75.8774H11.7857V107.493C11.7857 111.597 15.074 115.48 19.8491 116.332C20.9695 116.531 22.08 116.738 23.1816 116.943L23.1881 116.944L23.1979 116.946L23.3013 116.965C31.5719 118.505 40.7496 120.214 61.3764 120.214C82.0032 120.214 91.1808 118.506 99.4516 116.965L99.5544 116.946L99.561 116.945C100.664 116.74 101.78 116.531 102.903 116.332C107.679 115.48 110.967 111.597 110.967 107.493V75.8774ZM110.967 57.0203H11.7857V52.1528C11.7857 47.9721 15.002 44.264 19.3523 43.4989C20.6452 43.2715 21.9202 43.0341 23.1837 42.7988L23.1979 42.7962L23.3013 42.7769C31.5719 41.237 40.7495 39.5281 61.3764 39.5281C63.5142 39.5281 65.6033 39.5511 67.641 39.5942C70.8948 39.6629 73.5883 37.0809 73.657 33.8271C73.7257 30.5733 71.1437 27.8798 67.8899 27.8112C65.7709 27.7664 63.5987 27.7424 61.3764 27.7424C39.7493 27.7424 29.8341 29.5723 21.0406 31.2096C19.7629 31.4475 18.5409 31.675 17.3109 31.8913C7.77964 33.5677 0 41.8015 0 52.1528V107.493C0 118.038 8.13487 126.215 17.7801 127.934C18.8546 128.126 19.9263 128.326 21.0406 128.533C29.8341 130.17 39.7493 132 61.3764 132C83.0034 132 92.9186 130.17 101.712 128.533C102.825 128.326 103.899 128.126 104.973 127.934C114.617 126.215 122.752 118.038 122.752 107.493V57.0134H110.967V57.0203Z" fill="#FF6060"/>
</g>
<defs>
<clipPath id="clip0_5443_2310">
<rect width="132" height="132" fill="white"/>
</clipPath>
</defs>
</svg>
