<svg width="158" height="158" viewBox="0 0 158 158" fill="none" xmlns="http://www.w3.org/2000/svg">
<path fill-rule="evenodd" clip-rule="evenodd" d="M78.9392 2.82143C86.5129 2.83063 93.8054 5.64408 100.142 10.7535C117.876 25.0523 133.319 40.5397 147.584 58.3284C157.666 70.8986 157.76 87.1271 147.569 99.7379C133.134 117.598 117.493 133.239 99.6294 147.674C87.1921 157.723 70.9768 157.631 58.5804 147.69C40.4994 133.192 24.7977 117.481 10.3082 99.3894C0.369744 86.9803 0.276523 70.7612 10.3248 58.3112C24.6086 40.6133 40.0742 25.0944 57.7063 10.7699C64.0547 5.61237 71.3601 2.81224 78.9392 2.82143ZM78.9221 16.9286C74.9673 16.9238 70.7413 18.356 66.6016 21.7191C49.736 35.421 34.9682 50.2394 21.3025 67.1713C15.4609 74.4092 15.4749 83.2735 21.3192 90.5708C35.1625 107.856 50.1312 122.833 67.4055 136.685C74.6877 142.524 83.54 142.537 90.7629 136.702C107.853 122.892 122.789 107.957 136.597 90.871C142.574 83.4747 142.559 74.6098 136.58 67.1542C122.95 50.1587 108.227 35.3944 91.2873 21.7355C87.1262 18.3802 82.8823 16.9334 78.9221 16.9286ZM78.9835 37.7807C83.6582 37.7807 87.4478 41.5702 87.4478 46.245V80.9725C87.4478 85.6472 83.6582 89.4368 78.9835 89.4368C74.3088 89.4368 70.5192 85.6472 70.5192 80.9725V46.245C70.5192 41.5702 74.3088 37.7807 78.9835 37.7807ZM87.4809 107.179C87.4809 102.504 83.6913 98.7149 79.0166 98.7149C74.3418 98.7149 70.5523 102.504 70.5523 107.179V111.755C70.5523 116.43 74.3418 120.22 79.0166 120.22C83.6913 120.22 87.4809 116.43 87.4809 111.755V107.179Z" fill="#FF6060"/>
</svg>
