<svg width="158" height="158" xmlns="http://www.w3.org/2000/svg" fill="none">

 <g>
  <title>Layer 1</title>
  <path id="svg_1" fill="#ff9800" d="m78.9392,2.82143c7.5737,0.0092 14.8662,2.82265 21.2028,7.93207c17.734,14.2988 33.177,29.7862 47.442,47.5749c10.082,12.5702 10.176,28.7987 -0.015,41.4095c-14.435,17.8601 -30.076,33.5011 -47.9396,47.9361c-12.4373,10.049 -28.6526,9.957 -41.049,0.016c-18.081,-14.498 -33.7827,-30.209 -48.2722,-48.3006c-9.93846,-12.4091 -10.03168,-28.6282 0.0166,-41.0782c14.2838,-17.6979 29.7494,-33.2168 47.3815,-47.5413c6.3484,-5.15753 13.6538,-7.95766 21.2329,-7.94847zm-0.0171,14.10717c-3.9548,-0.0048 -8.1808,1.4274 -12.3205,4.7905c-16.8656,13.7019 -31.6334,28.5203 -45.2991,45.4522c-5.8416,7.2379 -5.8276,16.1022 0.0167,23.3995c13.8433,17.2852 28.812,32.2622 46.0863,46.1142c7.2822,5.839 16.1345,5.852 23.3574,0.017c17.0901,-13.81 32.0261,-28.745 45.8341,-45.831c5.977,-7.3963 5.962,-16.2612 -0.017,-23.7168c-13.63,-16.9955 -28.353,-31.7598 -45.2927,-45.4187c-4.1611,-3.3553 -8.405,-4.8021 -12.3652,-4.8069zm0.0614,20.8521c4.6747,0 8.4643,3.7895 8.4643,8.4643l0,34.7275c0,4.6747 -3.7896,8.4643 -8.4643,8.4643c-4.6747,0 -8.4643,-3.7896 -8.4643,-8.4643l0,-34.7275c0,-4.6748 3.7896,-8.4643 8.4643,-8.4643zm8.4974,69.3983c0,-4.675 -3.7896,-8.4641 -8.4643,-8.4641c-4.6748,0 -8.4643,3.7891 -8.4643,8.4641l0,4.576c0,4.675 3.7895,8.465 8.4643,8.465c4.6747,0 8.4643,-3.79 8.4643,-8.465l0,-4.576z" clip-rule="evenodd" fill-rule="evenodd"/>
 </g>
</svg>